# xmcd CD database file
#
# Track frame offsets:
#	150
#	17299
#	21119
#	35027
#	54622
#	80020
#	98244
#	118836
#	136028
#	152217
#	165733
#	180793
#
# Disc length: 2557 seconds
#
# Revision: 0
# Processed by: cddbd v1.5.2PL0 Copyright (c) Steve Scherf et al.
# Submitted via: CDex 1.51
#
DISCID=8e09fb0c
DTITLE=Modern Pop Quartet - Doin' Their Jazz Thing
DYEAR=2008
DGENRE=Jazz
TTITLE0=Guess I'll Hang My Tears Out To Dry
TTITLE1=I Did'nt Know What Time It Was - Intro
TTITLE2=I Did'nt Know What Time It Was
TTITLE3=Una Lacrima Sul Viso
TTITLE4=Hyperballad
TTITLE5=You Are The One
TTITLE6=Baby Jane
TTITLE7=Golden Land
TTITLE8=The Miracle Of Love
TTITLE9=You Really Got Me
TTITLE10=I Thought About You
TTITLE11=Les Roses Fanées
EXTD=YEAR: 2008
EXTT0=
EXTT1=
EXTT2=
EXTT3=
EXTT4=
EXTT5=
EXTT6=
EXTT7=
EXTT8=
EXTT9=
EXTT10=
EXTT11=
PLAYORDER=
